<svg id="图层_1" data-name="图层 1" xmlns="http://www.w3.org/2000/svg" xmlns:xlink="http://www.w3.org/1999/xlink" viewBox="0 0 947.59 932.8"><defs><style>.cls-1,.cls-10,.cls-4{fill:none;}.cls-2{fill:url(#未命名的渐变);}.cls-3{fill:#fff;}.cls-4{stroke:#3c3c41;stroke-miterlimit:10;}.cls-5{fill:#3c3c41;}.cls-6{fill:url(#未命名的渐变_2);}.cls-7{fill:#2e76bc;}.cls-13,.cls-14,.cls-7,.cls-8{isolation:isolate;}.cls-13,.cls-14,.cls-7{opacity:0.5;}.cls-8{fill:#505150;opacity:0.14;}.cls-9{clip-path:url(#clip-path);}.cls-10{stroke:#a5def3;stroke-width:0.5px;}.cls-11{clip-path:url(#clip-path-2);}.cls-12{clip-path:url(#clip-path-3);}.cls-13{fill:#8bb6e1;}.cls-14{fill:#fee452;}.cls-15,.cls-16,.cls-17,.cls-18,.cls-19{font-size:14px;}.cls-15,.cls-16,.cls-17{fill:#2f2f2f;}.cls-15,.cls-17,.cls-18,.cls-19{font-family:MeiryoUI, Meiryo UI;}.cls-16{font-family:MeiryoUI-Bold, Meiryo UI;font-weight:700;}.cls-17{letter-spacing:-0.02em;}.cls-18,.cls-19{fill:#1e1e1e;}.cls-19{letter-spacing:-0.03em;}</style><linearGradient id="未命名的渐变" x1="8.48" y1="1.46" x2="16.52" y2="23.54" gradientUnits="userSpaceOnUse"><stop offset="0" stop-color="#0078d4"/><stop offset="0.16" stop-color="#1380da"/><stop offset="0.53" stop-color="#3c91e5"/><stop offset="0.82" stop-color="#559cec"/><stop offset="1" stop-color="#5ea0ef"/></linearGradient><linearGradient id="未命名的渐变_2" x1="432.5" y1="795.41" x2="440.54" y2="817.49" gradientTransform="matrix(0.71, 0.71, 0.71, -0.71, -442.39, 389.13)" xlink:href="#未命名的渐变"/><clipPath id="clip-path"><rect class="cls-1" x="262.31" y="638.83" width="146.3" height="44"/></clipPath><clipPath id="clip-path-2"><rect class="cls-1" x="592.81" y="521.67" width="146.3" height="44"/></clipPath><clipPath id="clip-path-3"><rect class="cls-1" x="784.75" y="551.16" width="94.85" height="76.98"/></clipPath><symbol id="Flow_chart" data-name="Flow chart" viewBox="0 0 25 25"><polygon class="cls-2" points="12.5 25 25 12.5 12.5 0 0 12.5 12.5 25"/></symbol></defs><g id="Shapes"><rect class="cls-3" width="888.8" height="932.8"/><use width="25" height="25" transform="matrix(1, 0, 0, -1, 303.86, 377.45)" xlink:href="#Flow_chart"/><path class="cls-4" d="M213.68,199.7h-51a5,5,0,0,0-5,5v140"/><polygon class="cls-5" points="153.97 343.57 157.71 350.05 161.45 343.57 153.97 343.57"/><path class="cls-4" d="M78.19,365.65H51.34a5,5,0,0,0-5,5V642.11"/><polygon class="cls-5" points="42.6 641.01 46.34 647.49 50.08 641.01 42.6 641.01"/><line class="cls-4" x1="119.39" y1="365.65" x2="142.11" y2="365.65"/><path class="cls-4" d="M708.37,199.7h49.92a5,5,0,0,1,5,5V640.47"/><polygon class="cls-5" points="759.55 639.37 763.29 645.85 767.03 639.37 759.55 639.37"/><line class="cls-4" x1="668.01" y1="199.7" x2="623.01" y2="199.7"/><path class="cls-4" d="M410.45,365.65h34.49a5,5,0,0,1,5,5v45.14"/><polygon class="cls-5" points="446.2 414.69 449.94 421.17 453.68 414.69 446.2 414.69"/><line class="cls-4" x1="370.2" y1="365.65" x2="330.16" y2="365.65"/><path class="cls-4" d="M677.59,365.65h24.2a5,5,0,0,1,5,5V514.52"/><polygon class="cls-5" points="703.05 513.42 706.79 519.9 710.53 513.42 703.05 513.42"/><line class="cls-4" x1="641.66" y1="365.65" x2="623.37" y2="365.65"/><path class="cls-4" d="M240.71,489.22h36.63a5,5,0,0,1,5,5v138"/><polygon class="cls-5" points="278.6 631.18 282.34 637.66 286.08 631.18 278.6 631.18"/><line class="cls-4" x1="210.51" y1="489.22" x2="173.19" y2="489.22"/><rect class="cls-6" x="427.68" y="118.71" width="17.68" height="17.68" transform="translate(37.66 346.02) rotate(-45)"/><use width="25" height="25" transform="matrix(1, 0, 0, -1, 303.86, 211.5)" xlink:href="#Flow_chart"/><use width="25" height="25" transform="matrix(1, 0, 0, -1, 145.21, 377.45)" xlink:href="#Flow_chart"/><use width="25" height="25" transform="matrix(1, 0, 0, -1, 33.84, 673.65)" xlink:href="#Flow_chart"/><use width="25" height="25" transform="matrix(1, 0, 0, -1, 33.84, 761.2)" xlink:href="#Flow_chart"/><line class="cls-4" x1="781.01" y1="660.85" x2="777.81" y2="660.85"/><path class="cls-4" d="M824.78,660.85h2.64a5,5,0,0,0,5-5V635.08"/><polygon class="cls-5" points="836.16 636.18 832.42 629.7 828.68 636.18 836.16 636.18"/><line class="cls-4" x1="436.52" y1="62.85" x2="436.52" y2="105.87"/><polygon class="cls-5" points="432.78 104.77 436.52 111.25 440.26 104.77 432.78 104.77"/><line class="cls-4" x1="316.3" y1="213.93" x2="316.3" y2="344.67"/><polygon class="cls-5" points="312.56 343.57 316.3 350.05 320.04 343.57 312.56 343.57"/><use width="25" height="25" transform="matrix(1, 0, 0, -1, 145.21, 501.55)" xlink:href="#Flow_chart"/><line class="cls-4" x1="157.71" y1="379.25" x2="157.71" y2="468.76"/><polygon class="cls-5" points="153.97 467.66 157.71 474.14 161.45 467.66 153.97 467.66"/><line class="cls-4" x1="157.71" y1="503.89" x2="157.71" y2="538.67"/><polygon class="cls-5" points="153.97 537.57 157.71 544.05 161.45 537.57 153.97 537.57"/><use width="25" height="25" transform="matrix(1, 0, 0, -1, 595.35, 377.45)" xlink:href="#Flow_chart"/><use width="25" height="25" transform="matrix(1, 0, 0, -1, 751.23, 849.2)" xlink:href="#Flow_chart"/><use width="25" height="25" transform="matrix(1, 0, 0, -1, 751.23, 673.65)" xlink:href="#Flow_chart"/><line class="cls-4" x1="607.9" y1="214.04" x2="607.9" y2="345.64"/><polygon class="cls-5" points="604.16 344.54 607.9 351.02 611.64 344.54 604.16 344.54"/><line class="cls-4" x1="763.73" y1="678.02" x2="763.73" y2="729.97"/><polygon class="cls-5" points="759.99 728.87 763.73 735.35 767.47 728.87 759.99 728.87"/><line class="cls-4" x1="607.9" y1="378.85" x2="607.9" y2="415.79"/><polygon class="cls-5" points="604.16 414.69 607.9 421.17 611.64 414.69 604.16 414.69"/><rect class="cls-3" x="313.36" y="18.85" width="246.31" height="44" rx="10"/><rect class="cls-7" x="313.36" y="18.85" width="246.31" height="44" rx="10"/><line class="cls-4" x1="316.3" y1="378.85" x2="316.3" y2="632.27"/><polygon class="cls-5" points="312.56 631.18 316.3 637.66 320.04 631.18 312.56 631.18"/><rect class="cls-3" x="262.31" y="638.83" width="146.3" height="44"/><rect class="cls-8" x="262.31" y="638.83" width="146.3" height="44"/><g class="cls-9"><line class="cls-10" x1="305.25" y1="713.15" x2="365.67" y2="608.5"/><line class="cls-10" x1="315.25" y1="713.15" x2="375.67" y2="608.5"/><line class="cls-10" x1="325.25" y1="713.15" x2="385.67" y2="608.5"/><line class="cls-10" x1="335.25" y1="713.15" x2="395.67" y2="608.5"/><line class="cls-10" x1="345.25" y1="713.15" x2="405.67" y2="608.5"/><line class="cls-10" x1="355.25" y1="713.15" x2="415.67" y2="608.5"/><line class="cls-10" x1="365.25" y1="713.15" x2="425.67" y2="608.5"/><line class="cls-10" x1="375.25" y1="713.15" x2="435.67" y2="608.5"/><line class="cls-10" x1="385.25" y1="713.15" x2="445.67" y2="608.5"/><line class="cls-10" x1="395.25" y1="713.15" x2="455.67" y2="608.5"/><line class="cls-10" x1="214.04" y1="713.15" x2="274.46" y2="608.5"/><line class="cls-10" x1="224.04" y1="713.15" x2="284.46" y2="608.5"/><line class="cls-10" x1="234.04" y1="713.15" x2="294.46" y2="608.5"/><line class="cls-10" x1="244.04" y1="713.15" x2="304.46" y2="608.5"/><line class="cls-10" x1="254.04" y1="713.15" x2="314.46" y2="608.5"/><line class="cls-10" x1="264.04" y1="713.15" x2="324.46" y2="608.5"/><line class="cls-10" x1="274.04" y1="713.15" x2="334.46" y2="608.5"/><line class="cls-10" x1="284.04" y1="713.15" x2="344.46" y2="608.5"/><line class="cls-10" x1="294.04" y1="713.15" x2="354.46" y2="608.5"/></g><rect class="cls-3" x="592.81" y="521.67" width="146.3" height="44"/><rect class="cls-8" x="592.81" y="521.67" width="146.3" height="44"/><g class="cls-11"><line class="cls-10" x1="635.75" y1="596" x2="696.17" y2="491.35"/><line class="cls-10" x1="645.75" y1="596" x2="706.17" y2="491.35"/><line class="cls-10" x1="655.75" y1="596" x2="716.17" y2="491.35"/><line class="cls-10" x1="665.75" y1="596" x2="726.17" y2="491.35"/><line class="cls-10" x1="675.75" y1="596" x2="736.17" y2="491.35"/><line class="cls-10" x1="685.75" y1="596" x2="746.17" y2="491.35"/><line class="cls-10" x1="695.75" y1="596" x2="756.17" y2="491.35"/><line class="cls-10" x1="705.75" y1="596" x2="766.17" y2="491.35"/><line class="cls-10" x1="715.75" y1="596" x2="776.17" y2="491.35"/><line class="cls-10" x1="725.75" y1="596" x2="786.17" y2="491.35"/><line class="cls-10" x1="544.54" y1="596" x2="604.96" y2="491.35"/><line class="cls-10" x1="554.54" y1="596" x2="614.96" y2="491.35"/><line class="cls-10" x1="564.54" y1="596" x2="624.96" y2="491.35"/><line class="cls-10" x1="574.54" y1="596" x2="634.96" y2="491.35"/><line class="cls-10" x1="584.54" y1="596" x2="644.96" y2="491.35"/><line class="cls-10" x1="594.54" y1="596" x2="654.96" y2="491.35"/><line class="cls-10" x1="604.54" y1="596" x2="664.96" y2="491.35"/><line class="cls-10" x1="614.54" y1="596" x2="674.96" y2="491.35"/><line class="cls-10" x1="624.54" y1="596" x2="684.96" y2="491.35"/></g><rect class="cls-3" x="784.75" y="551.16" width="94.85" height="76.98"/><rect class="cls-8" x="784.75" y="551.16" width="94.85" height="76.98"/><g class="cls-12"><line class="cls-10" x1="806.95" y1="641.98" x2="867.37" y2="537.33"/><line class="cls-10" x1="816.95" y1="641.98" x2="877.37" y2="537.33"/><line class="cls-10" x1="826.95" y1="641.98" x2="887.37" y2="537.33"/><line class="cls-10" x1="836.95" y1="641.98" x2="897.37" y2="537.33"/><line class="cls-10" x1="846.95" y1="641.98" x2="907.37" y2="537.33"/><line class="cls-10" x1="856.95" y1="641.98" x2="917.37" y2="537.33"/><line class="cls-10" x1="866.95" y1="641.98" x2="927.37" y2="537.33"/><line class="cls-10" x1="876.95" y1="641.98" x2="937.37" y2="537.33"/><line class="cls-10" x1="886.95" y1="641.98" x2="947.37" y2="537.33"/><line class="cls-10" x1="715.74" y1="641.98" x2="776.16" y2="537.33"/><line class="cls-10" x1="725.74" y1="641.98" x2="786.16" y2="537.33"/><line class="cls-10" x1="735.74" y1="641.98" x2="796.16" y2="537.33"/><line class="cls-10" x1="745.74" y1="641.98" x2="806.16" y2="537.33"/><line class="cls-10" x1="755.74" y1="641.98" x2="816.16" y2="537.33"/><line class="cls-10" x1="765.74" y1="641.98" x2="826.16" y2="537.33"/><line class="cls-10" x1="775.74" y1="641.98" x2="836.16" y2="537.33"/><line class="cls-10" x1="785.74" y1="641.98" x2="846.16" y2="537.33"/><line class="cls-10" x1="795.74" y1="641.98" x2="856.16" y2="537.33"/></g><rect class="cls-3" x="86.9" y="545.85" width="141.9" height="34.95"/><rect class="cls-13" x="86.9" y="545.85" width="141.9" height="34.95"/><rect class="cls-3" x="12.7" y="818.65" width="141.9" height="34.95"/><rect class="cls-14" x="12.7" y="818.65" width="141.9" height="34.95"/><rect class="cls-3" x="378.4" y="422.4" width="141.9" height="34.95"/><rect class="cls-13" x="378.4" y="422.4" width="141.9" height="34.95"/><rect class="cls-3" x="537.7" y="422.4" width="141.9" height="34.95"/><rect class="cls-13" x="537.7" y="422.4" width="141.9" height="34.95"/><path class="cls-4" d="M554.4,422.4V370.65a5,5,0,0,1,5-5h28.26"/><polygon class="cls-5" points="586.56 369.39 593.04 365.65 586.56 361.91 586.56 369.39"/><path class="cls-4" d="M378.4,440H364.71a5,5,0,0,1-5-5V399.6a10.37,10.37,0,0,0-4.18-7.75l-24.65-16.23"/><polygon class="cls-5" points="333.85 373.1 326.38 372.66 329.73 379.35 333.85 373.1"/><line class="cls-4" x1="262.31" y1="660.69" x2="66.69" y2="660.69"/><polygon class="cls-5" points="67.79 656.95 61.31 660.69 67.79 664.43 67.79 656.95"/><path class="cls-4" d="M194.75,699.25h512a21,21,0,0,0,9.26-2.6l36.57-22.29"/><polygon class="cls-5" points="753.55 678.12 757.14 671.56 749.66 671.73 753.55 678.12"/><path class="cls-4" d="M151.7,699.25H100.79a8.14,8.14,0,0,1-3.69-1.08L54.63,671"/><path class="cls-4" d="M665.54,565.67v18.58a10.51,10.51,0,0,0,4.15,7.79l81.66,54.85"/><polygon class="cls-5" points="748.36 649.38 755.82 649.89 752.53 643.17 748.36 649.38"/><line class="cls-4" x1="258.44" y1="199.7" x2="300.44" y2="199.7"/><path class="cls-4" d="M353.56,127.52h-31.2a5,5,0,0,0-5,5v47.2"/><polygon class="cls-5" points="313.62 178.63 317.36 185.1 321.1 178.63 313.62 178.63"/><line class="cls-4" x1="385.76" y1="127.52" x2="419.4" y2="127.52"/><use width="25" height="25" transform="matrix(1, 0, 0, -1, 595.35, 212.28)" xlink:href="#Flow_chart"/><path class="cls-4" d="M523.76,127.52h79a5,5,0,0,1,5,5v47.2"/><polygon class="cls-5" points="604.02 178.63 607.76 185.1 611.5 178.63 604.02 178.63"/><line class="cls-4" x1="453.84" y1="127.52" x2="479.56" y2="127.52"/><line class="cls-4" x1="46.34" y1="678.58" x2="46.34" y2="728.07"/><polygon class="cls-5" points="42.6 726.97 46.34 733.45 50.08 726.97 42.6 726.97"/><line class="cls-4" x1="46.34" y1="762.76" x2="46.34" y2="813.27"/><polygon class="cls-5" points="42.6 812.17 46.34 818.65 50.08 812.17 42.6 812.17"/><use width="25" height="25" transform="matrix(1, 0, 0, -1, 433.39, 849.2)" xlink:href="#Flow_chart"/><path class="cls-4" d="M96.8,544.05V494.22a5,5,0,0,1,5-5h34.93"/><polygon class="cls-5" points="135.63 492.96 142.11 489.22 135.63 485.48 135.63 492.96"/><path class="cls-4" d="M445.79,813V788a5,5,0,0,1,5-5H727.71a11.71,11.71,0,0,0,8.09-3.92l17.74-22.48"/><polygon class="cls-5" points="449.53 811.92 445.79 818.4 442.05 811.92 449.53 811.92"/><line class="cls-4" x1="763.73" y1="764.6" x2="763.73" y2="813.02"/><polygon class="cls-5" points="759.99 811.92 763.73 818.4 767.47 811.92 759.99 811.92"/><use width="25" height="25" transform="matrix(1, 0, 0, -1, 751.23, 760.9)" xlink:href="#Flow_chart"/><rect class="cls-3" x="692.78" y="888.8" width="141.9" height="34.95"/><rect class="cls-14" x="692.78" y="888.8" width="141.9" height="34.95"/><rect class="cls-3" x="374.94" y="888.8" width="141.9" height="34.95"/><rect class="cls-14" x="374.94" y="888.8" width="141.9" height="34.95"/><line class="cls-4" x1="445.89" y1="853.6" x2="445.89" y2="883.42"/><polygon class="cls-5" points="442.15 882.32 445.89 888.8 449.63 882.32 442.15 882.32"/><line class="cls-4" x1="763.73" y1="851.12" x2="763.73" y2="883.42"/><polygon class="cls-5" points="759.99 882.32 763.73 888.8 767.47 882.32 759.99 882.32"/><path class="cls-4" d="M765.6,852.16h52.2a5,5,0,0,0,5-5V841a5,5,0,0,0-5-5H784.18"/><polygon class="cls-5" points="785.28 832.26 778.8 836 785.28 839.74 785.28 832.26"/><path class="cls-4" d="M449.35,852.16h52.2a5,5,0,0,0,5-5V841a5,5,0,0,0-5-5H467.93"/><polygon class="cls-5" points="469.03 832.26 462.55 836 469.03 839.74 469.03 832.26"/><path class="cls-4" d="M44,764H9.1a3,3,0,0,1-3-3v-9.16a3,3,0,0,1,3-3H26.72"/><polygon class="cls-5" points="25.63 752.62 32.11 748.88 25.63 745.14 25.63 752.62"/></g><text class="cls-15" transform="translate(712.06 910.8)">アイテムを削除する</text><text class="cls-15" transform="translate(769.97 875.44)">はい</text><text class="cls-15" transform="translate(827.57 848.22)">いいえ</text><text class="cls-15" transform="translate(769.91 803)">はい</text><text class="cls-15" transform="translate(769.91 704.45)">はい</text><text class="cls-15" transform="translate(786.04 663.94)">いいえ</text><text class="cls-15" transform="translate(797.62 578.73)">アイテムは保<tspan x="-2.11" y="16.8">持も削除もさ</tspan><tspan x="11.27" y="33.6">れません</tspan></text><text class="cls-16" transform="translate(580.67 824.48)">すべてのスコープされたポリシ<tspan x="-10.45" y="16.8">ーから、アイテムの最短の有効</tspan><tspan x="23.8" y="33.6">期限が切れた後ですか?</tspan></text><text class="cls-16" transform="translate(508.82 734.02)">任意のアイテム保持ポリシーに、場所のす<tspan x="2.19" y="16.8">べてのインスタンスではなく、スコープが設</tspan><tspan x="129.05" y="33.6">定されていますか?</tspan></text><text class="cls-16" transform="translate(527.26 655.9)">アイテムを削除するようにアイテム保持<tspan x="38.86" y="16.8">ポリシーは構成されていますか?</tspan></text><text class="cls-17" transform="translate(599 548.25)">アイテムは保持されません</text><text class="cls-15" transform="translate(557.26 444.59)">アイテムを保持する</text><text class="cls-15" transform="translate(397.96 444.59)">アイテムを保持する</text><text class="cls-15" transform="translate(614.32 398.53)">いいえ</text><text class="cls-15" transform="translate(646.8 369.07)">はい</text><text class="cls-15" transform="translate(373.24 370.07)">いいえ</text><text class="cls-16" transform="translate(331.31 311.63)">適用されたラベルとすべての<tspan x="0" y="16.8">ポリシーから:アイテムの最も</tspan><tspan x="0" y="33.6">長い保持期間の後ですか?</tspan></text><text class="cls-16" transform="translate(620.89 295.1)">すべてのポリシーか<tspan x="0" y="16.8">ら:アイテムの最も</tspan><tspan x="0" y="33.6">長い保持期間の後</tspan><tspan x="0" y="50.4">ですか?</tspan></text><text class="cls-15" transform="translate(613.62 233.91)">はい</text><text class="cls-15" transform="translate(672.52 205.15)">いいえ</text><text class="cls-16" transform="translate(620.8 163.78)">アイテムを保持するようにアイテム保持<tspan x="0" y="16.8">ラベルは構成されていますか?</tspan></text><text class="cls-15" transform="translate(394.12 910.8)">アイテムを削除する</text><text class="cls-16" transform="translate(238.82 826.95)">すべてのスコープされたポリシーか<tspan x="-2.41" y="16.8">ら、アイテムの最短の有効期限が</tspan><tspan x="89.58" y="33.6">切れた後ですか?</tspan></text><text class="cls-15" transform="translate(453.04 875.32)">はい</text><text class="cls-15" transform="translate(511 848.26)">いいえ</text><text class="cls-15" transform="translate(453.29 802.81)">いいえ</text><text class="cls-15" transform="translate(32.35 841.39)">アイテムを削除する</text><text class="cls-15" transform="translate(52.42 803.32)">はい</text><text class="cls-15" transform="translate(8.33 780.23)">いいえ</text><text class="cls-16" transform="translate(61.43 745.5)">ラベルからアイテムの有効期限が<tspan x="0" y="16.8">切れた後ですか?</tspan></text><text class="cls-18" transform="translate(52.48 713.12)">はい</text><text class="cls-18" transform="translate(156.6 702.44)">いいえ</text><text class="cls-19" transform="translate(268.09 665)">アイテムは保持されません</text><text class="cls-16" transform="translate(61.77 633.71)">アイテムを削除するように保持<tspan x="0" y="16.8">ラベルが構成されていますか?</tspan></text><text class="cls-18" transform="translate(105.98 567.99)">アイテムを保持する</text><text class="cls-18" transform="translate(163.68 520.53)">いいえ</text><text class="cls-18" transform="translate(213.5 494.72)">はい</text><text class="cls-16" transform="translate(171.6 437.39)">アイテムのラベルの<tspan x="0" y="16.8">保持期間の後で</tspan><tspan x="0" y="33.6">すか?</tspan></text><text class="cls-18" transform="translate(285.94 398.27)">はい</text><text class="cls-18" transform="translate(164.48 397.74)">はい</text><text class="cls-18" transform="translate(81.22 369.24)">いいえ</text><text class="cls-16" transform="translate(171.9 294.33)">アイテムを保持する<tspan x="0" y="16.8">ようにアイテム保持</tspan><tspan x="0" y="33.6">ラベルは構成されて</tspan><tspan x="0" y="50.4">いますか?</tspan></text><text class="cls-18" transform="translate(285.81 234.54)">はい</text><text class="cls-18" transform="translate(218.58 204.69)">いいえ</text><text class="cls-16" transform="translate(90.03 163.33)">アイテムを保持するようにアイテム保持<tspan x="49.89" y="16.8">ラベルは構成されていますか?</tspan></text><text class="cls-18" transform="translate(484.25 131.41)">いいえ</text><text class="cls-18" transform="translate(357.73 132.18)">はい</text><text class="cls-16" transform="translate(451.69 111.89)">保持ラベルが適用されていますか?</text><text class="cls-16" transform="translate(323 37.45)">アイテムを保持または削除するタイミング<tspan x="82.16" y="16.8">を決定する</tspan></text></svg>